<svg width="42" height="42" viewBox="0 0 42 42" fill="none" xmlns="http://www.w3.org/2000/svg">
<rect x="0.5" y="0.5" width="41" height="41" rx="20.5" fill="white"/>
<rect x="0.5" y="0.5" width="41" height="41" rx="20.5" stroke="#0B4697"/>
<path d="M13.7571 15.0835C13.8828 15.0322 14.0173 15 14.1594 15H27.8406C27.9827 15 28.1172 15.0322 28.2429 15.0835L22.113 21.4417C21.489 22.0894 20.5112 22.0894 19.887 21.4417L13.7571 15.0835ZM28.8291 26.3821C28.9353 26.1893 29 25.9654 29 25.7234V16.2766C29 16.105 28.9682 15.9419 28.9124 15.7923L23.176 21.7422L28.8291 26.3821ZM22.6573 22.2715C22.1812 22.7206 21.5915 22.9483 21 22.9483C20.4085 22.9483 19.8188 22.7208 19.3427 22.2715L13.7056 26.8981C13.8452 26.9635 13.9983 27 14.1594 27H27.8406C28.0017 27 28.1548 26.9635 28.2944 26.8981L22.6573 22.2715ZM13.0877 15.7922C13.0318 15.9419 13 16.105 13 16.2766V25.7234C13 25.9654 13.0647 26.1893 13.1709 26.3821L18.824 21.7422L13.0877 15.7922Z" fill="#0B4697"/>
</svg>
