<svg width="42" height="42" viewBox="0 0 42 42" fill="none" xmlns="http://www.w3.org/2000/svg">
<rect width="42" height="42" rx="21" fill="white"/>
<g clip-path="url(#clip0_901_1274)">
<path d="M17.7963 17.7764H14.8952C14.7664 17.7764 14.6621 17.8807 14.6621 18.0095V27.3295C14.6621 27.4583 14.7664 27.5626 14.8952 27.5626H17.7963C17.9251 27.5626 18.0294 27.4583 18.0294 27.3295V18.0095C18.0294 17.8807 17.9251 17.7764 17.7963 17.7764Z" fill="#0B4697"/>
<path d="M16.346 13.1426C15.2904 13.1426 14.4316 14.0004 14.4316 15.0549C14.4316 16.1098 15.2904 16.9679 16.346 16.9679C17.4008 16.9679 18.2589 16.1097 18.2589 15.0549C18.2589 14.0004 17.4008 13.1426 16.346 13.1426Z" fill="#0B4697"/>
<path d="M25.1744 17.543C24.0092 17.543 23.1478 18.0439 22.6254 18.613V18.0077C22.6254 17.879 22.521 17.7746 22.3923 17.7746H19.6139C19.4852 17.7746 19.3809 17.879 19.3809 18.0077V27.3278C19.3809 27.4565 19.4852 27.5609 19.6139 27.5609H22.5087C22.6375 27.5609 22.7418 27.4565 22.7418 27.3278V22.7165C22.7418 21.1626 23.1639 20.5572 24.2471 20.5572C25.4268 20.5572 25.5205 21.5277 25.5205 22.7965V27.3278C25.5205 27.4566 25.6249 27.5609 25.7536 27.5609H28.6495C28.7782 27.5609 28.8826 27.4566 28.8826 27.3278V22.2156C28.8826 19.905 28.442 17.543 25.1744 17.543Z" fill="#0B4697"/>
</g>
<defs>
<clipPath id="clip0_901_1274">
<rect width="15.75" height="15.75" fill="white" transform="translate(13.7812 13.125)"/>
</clipPath>
</defs>
</svg>
