<svg width="68" height="68" viewBox="0 0 68 68" fill="none" xmlns="http://www.w3.org/2000/svg">
<g filter="url(#filter0_d_1430_2072)">
<rect x="8" y="4" width="52" height="52" rx="26" fill="white" shape-rendering="crispEdges"/>
<mask id="mask0_1430_2072" style="mask-type:alpha" maskUnits="userSpaceOnUse" x="16" y="12" width="36" height="36">
<rect x="16.6667" y="12.6665" width="34.6667" height="34.6667" fill="#D9D9D9"/>
</mask>
<g mask="url(#mask0_1430_2072)">
<path d="M32.5558 23.9692L25.478 31.047C25.1891 31.3359 24.8521 31.4743 24.4669 31.4623C24.0817 31.4502 23.7447 31.2998 23.4558 31.0109C23.191 30.722 23.0526 30.385 23.0405 29.9998C23.0285 29.6146 23.1669 29.2776 23.4558 28.9887L32.9891 19.4553C33.1336 19.3109 33.2901 19.2086 33.4586 19.1484C33.6271 19.0882 33.8076 19.0581 34.0002 19.0581C34.1928 19.0581 34.3734 19.0882 34.5419 19.1484C34.7104 19.2086 34.8669 19.3109 35.0114 19.4553L44.5447 28.9887C44.8095 29.2535 44.9419 29.5845 44.9419 29.9817C44.9419 30.3789 44.8095 30.722 44.5447 31.0109C44.2558 31.2998 43.9127 31.4442 43.5155 31.4442C43.1183 31.4442 42.7752 31.2998 42.4864 31.0109L35.4447 23.9692V40.1109C35.4447 40.5201 35.3063 40.8632 35.0294 41.1401C34.7526 41.4169 34.4095 41.5553 34.0002 41.5553C33.591 41.5553 33.2479 41.4169 32.9711 41.1401C32.6942 40.8632 32.5558 40.5201 32.5558 40.1109V23.9692Z" fill="#141414"/>
</g>
</g>
<defs>
<filter id="filter0_d_1430_2072" x="0" y="0" width="68" height="68" filterUnits="userSpaceOnUse" color-interpolation-filters="sRGB">
<feFlood flood-opacity="0" result="BackgroundImageFix"/>
<feColorMatrix in="SourceAlpha" type="matrix" values="0 0 0 0 0 0 0 0 0 0 0 0 0 0 0 0 0 0 127 0" result="hardAlpha"/>
<feOffset dy="4"/>
<feGaussianBlur stdDeviation="4"/>
<feComposite in2="hardAlpha" operator="out"/>
<feColorMatrix type="matrix" values="0 0 0 0 0 0 0 0 0 0 0 0 0 0 0 0 0 0 0.12 0"/>
<feBlend mode="normal" in2="BackgroundImageFix" result="effect1_dropShadow_1430_2072"/>
<feBlend mode="normal" in="SourceGraphic" in2="effect1_dropShadow_1430_2072" result="shape"/>
</filter>
</defs>
</svg>
