<svg width="24" height="25" viewBox="0 0 24 25" fill="none" xmlns="http://www.w3.org/2000/svg">
<path d="M6.73698 18.0376C5.69005 17.9411 4.65689 17.459 3.85791 16.6187C2.03955 14.7039 2.03955 11.5631 3.85791 9.64836L6.87475 6.48003C8.69311 4.56525 11.6824 4.56525 13.5145 6.48003C15.3329 8.39481 15.3329 11.5356 13.5145 13.4504L12.013 15.0345" stroke="black" stroke-width="1.5" stroke-linecap="round" stroke-linejoin="round"/>
<path d="M17.2624 6.96289C18.3094 7.05932 19.3425 7.54146 20.1415 8.38176C21.9599 10.2965 21.9599 13.4373 20.1415 15.3521L17.1247 18.5204C15.3063 20.4352 12.317 20.4352 10.4849 18.5204C8.6665 16.6057 8.6665 13.4649 10.4849 11.5501L11.9864 9.96592" stroke="black" stroke-width="1.5" stroke-linecap="round" stroke-linejoin="round"/>
</svg>
