<svg width="18" height="21" viewBox="0 0 18 21" fill="none" xmlns="http://www.w3.org/2000/svg">
<path fill-rule="evenodd" clip-rule="evenodd" d="M3.20712 0.558517C2.46136 0.676006 1.78348 1.1713 1.43968 1.84982L1.24566 2.23279L1.22913 6.93405L1.21254 11.6353H0.606302H0V14.5875V17.5398L0.592448 17.556L1.1849 17.5723L1.21765 18.1688C1.24578 18.6819 1.2772 18.8189 1.44205 19.1483C1.7847 19.8328 2.42746 20.3007 3.21806 20.4408C3.6784 20.5225 14.9898 20.5183 15.4684 20.4364C16.4628 20.2661 17.2418 19.515 17.4336 18.5418C17.4792 18.3105 17.5 16.1544 17.5 11.6691V5.13337L16.2088 3.93848C15.4986 3.28133 14.3691 2.23881 13.6988 1.62183L12.4801 0.5L7.98699 0.506704C5.51578 0.51034 3.36486 0.53369 3.20712 0.558517ZM2.86799 1.3856C2.47977 1.56649 2.16678 1.8989 2.00569 2.30142C1.88727 2.59736 1.88368 2.73945 1.88368 7.12085V11.6353L5.90929 11.6357C8.25198 11.6358 10.0873 11.6593 10.2995 11.6917C11.3028 11.8451 12.2115 12.641 12.5512 13.6637C12.601 13.8136 12.6585 14.143 12.6791 14.3956C12.7785 15.622 12.1041 16.7967 11.0103 17.3022L10.549 17.5154L6.20898 17.5311L1.86898 17.5468L1.89559 18.0424C1.9377 18.8252 2.2465 19.3229 2.87055 19.6137L3.1836 19.7595L9.32398 19.759L15.4644 19.7584L15.7705 19.6251C15.9418 19.5506 16.1874 19.3742 16.328 19.2249C16.7996 18.724 16.7708 19.187 16.7708 12.1081V5.78359H15.3815C14.6175 5.78359 13.845 5.75791 13.6649 5.72649C12.862 5.58634 12.1397 5.05065 11.77 4.32117L11.5755 3.93718L11.5555 2.58787L11.5355 1.23857H7.35954H3.1836L2.86799 1.3856ZM12.2235 2.50265C12.2432 3.66703 12.2496 3.721 12.4027 4.02239C12.6049 4.42025 12.9433 4.73653 13.3681 4.92435C13.6904 5.0669 13.7492 5.07286 15.0239 5.09258C15.8891 5.10593 16.3455 5.09309 16.3455 5.05548C16.3455 4.98566 12.3327 1.29538 12.2567 1.29538C12.2268 1.29538 12.2121 1.82777 12.2235 2.50265ZM2.24826 14.6138V16.1235H2.5217H2.79514V15.5622V15.0008L3.3572 14.9764C3.99255 14.9486 4.22807 14.8621 4.44615 14.5762C4.6389 14.3236 4.64759 13.764 4.46238 13.532C4.17484 13.1719 4.07872 13.1424 3.12515 13.1224L2.24826 13.104V14.6138ZM5.22569 14.618V16.1235L5.87891 16.1232C6.69102 16.1228 6.92976 16.0623 7.26754 15.7712C7.58108 15.501 7.7178 15.1503 7.71556 14.6218C7.71264 13.9241 7.47773 13.48 6.98785 13.2462C6.74734 13.1314 6.62466 13.1155 5.97005 13.114L5.22569 13.1124V14.618ZM8.38542 14.6211V16.1298L8.67404 16.1124L8.96267 16.0951V15.4702V14.8452L9.60069 14.8371L10.2387 14.8289L10.2576 14.624L10.2764 14.4191H9.60434H8.93229V13.9646V13.5101H9.69184H10.4514V13.3113V13.1124H9.4184H8.38542V14.6211ZM2.79514 14.0574V14.6045L3.24722 14.5774C3.52066 14.561 3.7597 14.5133 3.85207 14.4567C4.15698 14.2699 4.10594 13.7437 3.76736 13.5836C3.68381 13.5442 3.43091 13.5114 3.2053 13.511L2.79514 13.5101V14.0574ZM5.83187 13.5385C5.83108 13.5542 5.82987 14.0463 5.8292 14.6322L5.82793 15.6974L6.20071 15.69C6.92131 15.6758 7.10938 15.4513 7.10938 14.6055C7.10938 14.1089 7.09206 14.0142 6.97053 13.8452C6.89123 13.7349 6.74145 13.6231 6.62114 13.5843C6.41284 13.5173 5.83467 13.4837 5.83187 13.5385Z" fill="black"/>
</svg>
